<svg aria-roledescription="er" role="graphics-document document" viewBox="-100 0 948.021728515625 1211" style="max-width: 948.022px; background-color: transparent;" xmlns:xlink="http://www.w3.org/1999/xlink" xmlns="http://www.w3.org/2000/svg" width="100%" id="my-svg"><style>#my-svg{font-family:"trebuchet ms",verdana,arial,sans-serif;font-size:16px;fill:#333;}#my-svg .error-icon{fill:#552222;}#my-svg .error-text{fill:#552222;stroke:#552222;}#my-svg .edge-thickness-normal{stroke-width:1px;}#my-svg .edge-thickness-thick{stroke-width:3.5px;}#my-svg .edge-pattern-solid{stroke-dasharray:0;}#my-svg .edge-thickness-invisible{stroke-width:0;fill:none;}#my-svg .edge-pattern-dashed{stroke-dasharray:3;}#my-svg .edge-pattern-dotted{stroke-dasharray:2;}#my-svg .marker{fill:#333333;stroke:#333333;}#my-svg .marker.cross{stroke:#333333;}#my-svg svg{font-family:"trebuchet ms",verdana,arial,sans-serif;font-size:16px;}#my-svg p{margin:0;}#my-svg .entityBox{fill:#ECECFF;stroke:#9370DB;}#my-svg .attributeBoxOdd{fill:#ffffff;stroke:#9370DB;}#my-svg .attributeBoxEven{fill:#f2f2f2;stroke:#9370DB;}#my-svg .relationshipLabelBox{fill:hsl(80, 100%, 96.2745098039%);opacity:0.7;background-color:hsl(80, 100%, 96.2745098039%);}#my-svg .relationshipLabelBox rect{opacity:0.5;}#my-svg .relationshipLine{stroke:#333333;}#my-svg .entityTitleText{text-anchor:middle;font-size:18px;fill:#333;}#my-svg #MD_PARENT_START{fill:#f5f5f5!important;stroke:#333333!important;stroke-width:1;}#my-svg #MD_PARENT_END{fill:#f5f5f5!important;stroke:#333333!important;stroke-width:1;}#my-svg :root{--mermaid-font-family:"trebuchet ms",verdana,arial,sans-serif;}</style><g/><defs><marker orient="auto" markerHeight="240" markerWidth="190" refY="7" refX="0" id="MD_PARENT_START"><path d="M 18,7 L9,13 L1,7 L9,1 Z"/></marker></defs><defs><marker orient="auto" markerHeight="28" markerWidth="20" refY="7" refX="19" id="MD_PARENT_END"><path d="M 18,7 L9,13 L1,7 L9,1 Z"/></marker></defs><defs><marker orient="auto" markerHeight="18" markerWidth="18" refY="9" refX="0" id="ONLY_ONE_START"><path d="M9,0 L9,18 M15,0 L15,18" fill="none" stroke="gray"/></marker></defs><defs><marker orient="auto" markerHeight="18" markerWidth="18" refY="9" refX="18" id="ONLY_ONE_END"><path d="M3,0 L3,18 M9,0 L9,18" fill="none" stroke="gray"/></marker></defs><defs><marker orient="auto" markerHeight="18" markerWidth="30" refY="9" refX="0" id="ZERO_OR_ONE_START"><circle r="6" cy="9" cx="21" fill="white" stroke="gray"/><path d="M9,0 L9,18" fill="none" stroke="gray"/></marker></defs><defs><marker orient="auto" markerHeight="18" markerWidth="30" refY="9" refX="30" id="ZERO_OR_ONE_END"><circle r="6" cy="9" cx="9" fill="white" stroke="gray"/><path d="M21,0 L21,18" fill="none" stroke="gray"/></marker></defs><defs><marker orient="auto" markerHeight="36" markerWidth="45" refY="18" refX="18" id="ONE_OR_MORE_START"><path d="M0,18 Q 18,0 36,18 Q 18,36 0,18 M42,9 L42,27" fill="none" stroke="gray"/></marker></defs><defs><marker orient="auto" markerHeight="36" markerWidth="45" refY="18" refX="27" id="ONE_OR_MORE_END"><path d="M3,9 L3,27 M9,18 Q27,0 45,18 Q27,36 9,18" fill="none" stroke="gray"/></marker></defs><defs><marker orient="auto" markerHeight="36" markerWidth="57" refY="18" refX="18" id="ZERO_OR_MORE_START"><circle r="6" cy="18" cx="48" fill="white" stroke="gray"/><path d="M0,18 Q18,0 36,18 Q18,36 0,18" fill="none" stroke="gray"/></marker></defs><defs><marker orient="auto" markerHeight="36" markerWidth="57" refY="18" refX="39" id="ZERO_OR_MORE_END"><circle r="6" cy="18" cx="9" fill="white" stroke="gray"/><path d="M21,18 Q39,0 57,18 Q39,36 21,18" fill="none" stroke="gray"/></marker></defs><path style="stroke: gray; fill: none;" marker-start="url(#ZERO_OR_ONE_START)" marker-end="url(#ZERO_OR_MORE_END)" d="M300.511,233L300.511,241.333C300.511,249.667,300.511,266.333,300.511,283C300.511,299.667,300.511,316.333,300.511,324.667L300.511,333" class="er relationshipLine"/><path style="stroke: gray; fill: none;" marker-start="url(#ZERO_OR_ONE_START)" marker-end="url(#ZERO_OR_MORE_END)" d="M353.923,407.094L391.094,421.079C428.266,435.063,502.608,463.031,556.747,490.047C610.887,517.062,644.823,543.124,661.791,556.154L678.759,569.185" class="er relationshipLine"/><path style="stroke: gray; fill: none;" marker-start="url(#ZERO_OR_ONE_START)" marker-end="url(#ZERO_OR_MORE_END)" d="M247.099,412.34L219.466,425.45C191.834,438.56,136.568,464.78,108.936,494.973C81.303,525.167,81.303,559.333,81.303,576.417L81.303,593.5" class="er relationshipLine"/><path style="stroke: gray; fill: none;" marker-start="url(#ZERO_OR_ONE_START)" marker-end="url(#ZERO_OR_MORE_END)" d="M300.511,441L300.511,449.333C300.511,457.667,300.511,474.333,300.511,499.75C300.511,525.167,300.511,559.333,300.511,576.417L300.511,593.5" class="er relationshipLine"/><path style="stroke: gray; fill: none;" marker-start="url(#ZERO_OR_ONE_START)" marker-end="url(#ZERO_OR_MORE_END)" d="M220.206,159.528L170.172,180.107C120.138,200.686,20.069,241.843,-29.966,279.755C-80,317.667,-80,352.333,-80,387C-80,421.667,-80,456.333,-80,496.25C-80,536.167,-80,581.333,-80,626.5C-80,671.667,-80,716.833,-12.793,760.901C54.414,804.97,188.827,847.939,256.034,869.424L323.241,890.909" class="er relationshipLine"/><path style="stroke: gray; fill: none;" marker-start="url(#ZERO_OR_ONE_START)" marker-end="url(#ZERO_OR_MORE_END)" d="M300.511,659.5L300.511,676.583C300.511,693.667,300.511,727.833,306.317,753.25C312.123,778.667,323.735,795.333,329.541,803.667L335.348,812" class="er relationshipLine"/><path style="stroke: gray; fill: none;" marker-start="url(#ZERO_OR_ONE_START)" marker-end="url(#ZERO_OR_MORE_END)" d="M518.588,680.5L518.588,694.083C518.588,707.667,518.588,734.833,512.781,756.75C506.975,778.667,495.363,795.333,489.557,803.667L483.751,812" class="er relationshipLine"/><path style="stroke: gray; fill: none;" marker-start="url(#ZERO_OR_ONE_START)" marker-end="url(#ZERO_OR_MORE_END)" d="M380.816,151.491L451.245,173.41C521.674,195.328,662.532,239.164,732.961,278.415C803.39,317.667,803.39,352.333,803.39,387C803.39,421.667,803.39,456.333,800.315,482C797.24,507.667,791.09,524.333,788.015,532.667L784.94,541" class="er relationshipLine"/><path style="stroke: gray; fill: none;" marker-start="url(#ZERO_OR_ONE_START)" marker-end="url(#ZERO_OR_MORE_END)" d="M753.39,712L753.39,720.333C753.39,728.667,753.39,745.333,710.468,773.203C667.546,801.072,581.702,840.144,538.779,859.681L495.857,879.217" class="er relationshipLine"/><path style="stroke: gray; fill: none;" marker-start="url(#ZERO_OR_MORE_START)" marker-end="url(#ZERO_OR_ONE_END)" d="M409.549,1025L409.549,1033.333C409.549,1041.667,409.549,1058.333,409.549,1075C409.549,1091.667,409.549,1108.333,409.549,1116.667L409.549,1125" class="er relationshipLine"/><g transform="translate(220.20638275146484,20 )" id="entity-Date-7e62fd57-a538-5b88-8dc2-5a8d536e6d1b"><rect height="213" width="160.6092987060547" y="0" x="0" class="er entityBox"/><text style="dominant-baseline: middle; text-anchor: middle; font-size: 12px;" transform="translate(80.30464935302734,12)" y="0" x="0" id="text-entity-Date-7e62fd57-a538-5b88-8dc2-5a8d536e6d1b" class="er entityLabel">Date</text><rect height="21" width="35.245819091796875" y="24" x="0" class="er attributeBoxOdd"/><text style="dominant-baseline: middle; font-size: 10.2px;" transform="translate(5,34.5)" y="0" x="0" id="text-entity-Date-7e62fd57-a538-5b88-8dc2-5a8d536e6d1b-attr-1-type" class="er entityLabel">int</text><rect height="21" width="101.56849670410156" y="24" x="35.245819091796875" class="er attributeBoxOdd"/><text style="dominant-baseline: middle; font-size: 10.2px;" transform="translate(40.245819091796875,34.5)" y="0" x="0" id="text-entity-Date-7e62fd57-a538-5b88-8dc2-5a8d536e6d1b-attr-1-name" class="er entityLabel">DateID</text><rect height="21" width="23.79498291015625" y="24" x="136.81431579589844" class="er attributeBoxOdd"/><text style="dominant-baseline: middle; font-size: 10.2px;" transform="translate(141.81431579589844,34.5)" y="0" x="0" id="text-entity-Date-7e62fd57-a538-5b88-8dc2-5a8d536e6d1b-attr-1-key" class="er entityLabel">PK</text><rect height="21" width="35.245819091796875" y="45" x="0" class="er attributeBoxEven"/><text style="dominant-baseline: middle; font-size: 10.2px;" transform="translate(5,55.5)" y="0" x="0" id="text-entity-Date-7e62fd57-a538-5b88-8dc2-5a8d536e6d1b-attr-2-type" class="er entityLabel">date</text><rect height="21" width="101.56849670410156" y="45" x="35.245819091796875" class="er attributeBoxEven"/><text style="dominant-baseline: middle; font-size: 10.2px;" transform="translate(40.245819091796875,55.5)" y="0" x="0" id="text-entity-Date-7e62fd57-a538-5b88-8dc2-5a8d536e6d1b-attr-2-name" class="er entityLabel">Date</text><rect height="21" width="23.79498291015625" y="45" x="136.81431579589844" class="er attributeBoxEven"/><text style="dominant-baseline: middle; font-size: 10.2px;" transform="translate(141.81431579589844,55.5)" y="0" x="0" id="text-entity-Date-7e62fd57-a538-5b88-8dc2-5a8d536e6d1b-attr-2-key" class="er entityLabel"/><rect height="21" width="35.245819091796875" y="66" x="0" class="er attributeBoxOdd"/><text style="dominant-baseline: middle; font-size: 10.2px;" transform="translate(5,76.5)" y="0" x="0" id="text-entity-Date-7e62fd57-a538-5b88-8dc2-5a8d536e6d1b-attr-3-type" class="er entityLabel">int</text><rect height="21" width="101.56849670410156" y="66" x="35.245819091796875" class="er attributeBoxOdd"/><text style="dominant-baseline: middle; font-size: 10.2px;" transform="translate(40.245819091796875,76.5)" y="0" x="0" id="text-entity-Date-7e62fd57-a538-5b88-8dc2-5a8d536e6d1b-attr-3-name" class="er entityLabel">Year</text><rect height="21" width="23.79498291015625" y="66" x="136.81431579589844" class="er attributeBoxOdd"/><text style="dominant-baseline: middle; font-size: 10.2px;" transform="translate(141.81431579589844,76.5)" y="0" x="0" id="text-entity-Date-7e62fd57-a538-5b88-8dc2-5a8d536e6d1b-attr-3-key" class="er entityLabel"/><rect height="21" width="35.245819091796875" y="87" x="0" class="er attributeBoxEven"/><text style="dominant-baseline: middle; font-size: 10.2px;" transform="translate(5,97.5)" y="0" x="0" id="text-entity-Date-7e62fd57-a538-5b88-8dc2-5a8d536e6d1b-attr-4-type" class="er entityLabel">string</text><rect height="21" width="101.56849670410156" y="87" x="35.245819091796875" class="er attributeBoxEven"/><text style="dominant-baseline: middle; font-size: 10.2px;" transform="translate(40.245819091796875,97.5)" y="0" x="0" id="text-entity-Date-7e62fd57-a538-5b88-8dc2-5a8d536e6d1b-attr-4-name" class="er entityLabel">Season</text><rect height="21" width="23.79498291015625" y="87" x="136.81431579589844" class="er attributeBoxEven"/><text style="dominant-baseline: middle; font-size: 10.2px;" transform="translate(141.81431579589844,97.5)" y="0" x="0" id="text-entity-Date-7e62fd57-a538-5b88-8dc2-5a8d536e6d1b-attr-4-key" class="er entityLabel"/><rect height="21" width="35.245819091796875" y="108" x="0" class="er attributeBoxOdd"/><text style="dominant-baseline: middle; font-size: 10.2px;" transform="translate(5,118.5)" y="0" x="0" id="text-entity-Date-7e62fd57-a538-5b88-8dc2-5a8d536e6d1b-attr-5-type" class="er entityLabel">string</text><rect height="21" width="101.56849670410156" y="108" x="35.245819091796875" class="er attributeBoxOdd"/><text style="dominant-baseline: middle; font-size: 10.2px;" transform="translate(40.245819091796875,118.5)" y="0" x="0" id="text-entity-Date-7e62fd57-a538-5b88-8dc2-5a8d536e6d1b-attr-5-name" class="er entityLabel">Month</text><rect height="21" width="23.79498291015625" y="108" x="136.81431579589844" class="er attributeBoxOdd"/><text style="dominant-baseline: middle; font-size: 10.2px;" transform="translate(141.81431579589844,118.5)" y="0" x="0" id="text-entity-Date-7e62fd57-a538-5b88-8dc2-5a8d536e6d1b-attr-5-key" class="er entityLabel"/><rect height="21" width="35.245819091796875" y="129" x="0" class="er attributeBoxEven"/><text style="dominant-baseline: middle; font-size: 10.2px;" transform="translate(5,139.5)" y="0" x="0" id="text-entity-Date-7e62fd57-a538-5b88-8dc2-5a8d536e6d1b-attr-6-type" class="er entityLabel">int</text><rect height="21" width="101.56849670410156" y="129" x="35.245819091796875" class="er attributeBoxEven"/><text style="dominant-baseline: middle; font-size: 10.2px;" transform="translate(40.245819091796875,139.5)" y="0" x="0" id="text-entity-Date-7e62fd57-a538-5b88-8dc2-5a8d536e6d1b-attr-6-name" class="er entityLabel">MonthNumber</text><rect height="21" width="23.79498291015625" y="129" x="136.81431579589844" class="er attributeBoxEven"/><text style="dominant-baseline: middle; font-size: 10.2px;" transform="translate(141.81431579589844,139.5)" y="0" x="0" id="text-entity-Date-7e62fd57-a538-5b88-8dc2-5a8d536e6d1b-attr-6-key" class="er entityLabel"/><rect height="21" width="35.245819091796875" y="150" x="0" class="er attributeBoxOdd"/><text style="dominant-baseline: middle; font-size: 10.2px;" transform="translate(5,160.5)" y="0" x="0" id="text-entity-Date-7e62fd57-a538-5b88-8dc2-5a8d536e6d1b-attr-7-type" class="er entityLabel">int</text><rect height="21" width="101.56849670410156" y="150" x="35.245819091796875" class="er attributeBoxOdd"/><text style="dominant-baseline: middle; font-size: 10.2px;" transform="translate(40.245819091796875,160.5)" y="0" x="0" id="text-entity-Date-7e62fd57-a538-5b88-8dc2-5a8d536e6d1b-attr-7-name" class="er entityLabel">Day</text><rect height="21" width="23.79498291015625" y="150" x="136.81431579589844" class="er attributeBoxOdd"/><text style="dominant-baseline: middle; font-size: 10.2px;" transform="translate(141.81431579589844,160.5)" y="0" x="0" id="text-entity-Date-7e62fd57-a538-5b88-8dc2-5a8d536e6d1b-attr-7-key" class="er entityLabel"/><rect height="21" width="35.245819091796875" y="171" x="0" class="er attributeBoxEven"/><text style="dominant-baseline: middle; font-size: 10.2px;" transform="translate(5,181.5)" y="0" x="0" id="text-entity-Date-7e62fd57-a538-5b88-8dc2-5a8d536e6d1b-attr-8-type" class="er entityLabel">string</text><rect height="21" width="101.56849670410156" y="171" x="35.245819091796875" class="er attributeBoxEven"/><text style="dominant-baseline: middle; font-size: 10.2px;" transform="translate(40.245819091796875,181.5)" y="0" x="0" id="text-entity-Date-7e62fd57-a538-5b88-8dc2-5a8d536e6d1b-attr-8-name" class="er entityLabel">DayOfWeek</text><rect height="21" width="23.79498291015625" y="171" x="136.81431579589844" class="er attributeBoxEven"/><text style="dominant-baseline: middle; font-size: 10.2px;" transform="translate(141.81431579589844,181.5)" y="0" x="0" id="text-entity-Date-7e62fd57-a538-5b88-8dc2-5a8d536e6d1b-attr-8-key" class="er entityLabel"/><rect height="21" width="35.245819091796875" y="192" x="0" class="er attributeBoxOdd"/><text style="dominant-baseline: middle; font-size: 10.2px;" transform="translate(5,202.5)" y="0" x="0" id="text-entity-Date-7e62fd57-a538-5b88-8dc2-5a8d536e6d1b-attr-9-type" class="er entityLabel">int</text><rect height="21" width="101.56849670410156" y="192" x="35.245819091796875" class="er attributeBoxOdd"/><text style="dominant-baseline: middle; font-size: 10.2px;" transform="translate(40.245819091796875,202.5)" y="0" x="0" id="text-entity-Date-7e62fd57-a538-5b88-8dc2-5a8d536e6d1b-attr-9-name" class="er entityLabel">DayOfWeekNumber</text><rect height="21" width="23.79498291015625" y="192" x="136.81431579589844" class="er attributeBoxOdd"/><text style="dominant-baseline: middle; font-size: 10.2px;" transform="translate(141.81431579589844,202.5)" y="0" x="0" id="text-entity-Date-7e62fd57-a538-5b88-8dc2-5a8d536e6d1b-attr-9-key" class="er entityLabel"/></g><g transform="translate(247.09906005859375,333 )" id="entity-Ride-40f552c2-674a-59b0-85b9-cc68f74d56b5"><rect height="108" width="106.82394409179688" y="0" x="0" class="er entityBox"/><text style="dominant-baseline: middle; text-anchor: middle; font-size: 12px;" transform="translate(53.41197204589844,12)" y="0" x="0" id="text-entity-Ride-40f552c2-674a-59b0-85b9-cc68f74d56b5" class="er entityLabel">Ride</text><rect height="21" width="20.92913818359375" y="24" x="0" class="er attributeBoxOdd"/><text style="dominant-baseline: middle; font-size: 10.2px;" transform="translate(5,34.5)" y="0" x="0" id="text-entity-Ride-40f552c2-674a-59b0-85b9-cc68f74d56b5-attr-1-type" class="er entityLabel">int</text><rect height="21" width="62.671875" y="24" x="20.92913818359375" class="er attributeBoxOdd"/><text style="dominant-baseline: middle; font-size: 10.2px;" transform="translate(25.92913818359375,34.5)" y="0" x="0" id="text-entity-Ride-40f552c2-674a-59b0-85b9-cc68f74d56b5-attr-1-name" class="er entityLabel">RideDateID</text><rect height="21" width="23.222930908203125" y="24" x="83.60101318359375" class="er attributeBoxOdd"/><text style="dominant-baseline: middle; font-size: 10.2px;" transform="translate(88.60101318359375,34.5)" y="0" x="0" id="text-entity-Ride-40f552c2-674a-59b0-85b9-cc68f74d56b5-attr-1-key" class="er entityLabel">FK</text><rect height="21" width="20.92913818359375" y="45" x="0" class="er attributeBoxEven"/><text style="dominant-baseline: middle; font-size: 10.2px;" transform="translate(5,55.5)" y="0" x="0" id="text-entity-Ride-40f552c2-674a-59b0-85b9-cc68f74d56b5-attr-2-type" class="er entityLabel">int</text><rect height="21" width="62.671875" y="45" x="20.92913818359375" class="er attributeBoxEven"/><text style="dominant-baseline: middle; font-size: 10.2px;" transform="translate(25.92913818359375,55.5)" y="0" x="0" id="text-entity-Ride-40f552c2-674a-59b0-85b9-cc68f74d56b5-attr-2-name" class="er entityLabel">SlopeID</text><rect height="21" width="23.222930908203125" y="45" x="83.60101318359375" class="er attributeBoxEven"/><text style="dominant-baseline: middle; font-size: 10.2px;" transform="translate(88.60101318359375,55.5)" y="0" x="0" id="text-entity-Ride-40f552c2-674a-59b0-85b9-cc68f74d56b5-attr-2-key" class="er entityLabel">FK</text><rect height="21" width="20.92913818359375" y="66" x="0" class="er attributeBoxOdd"/><text style="dominant-baseline: middle; font-size: 10.2px;" transform="translate(5,76.5)" y="0" x="0" id="text-entity-Ride-40f552c2-674a-59b0-85b9-cc68f74d56b5-attr-3-type" class="er entityLabel">int</text><rect height="21" width="62.671875" y="66" x="20.92913818359375" class="er attributeBoxOdd"/><text style="dominant-baseline: middle; font-size: 10.2px;" transform="translate(25.92913818359375,76.5)" y="0" x="0" id="text-entity-Ride-40f552c2-674a-59b0-85b9-cc68f74d56b5-attr-3-name" class="er entityLabel">CardID</text><rect height="21" width="23.222930908203125" y="66" x="83.60101318359375" class="er attributeBoxOdd"/><text style="dominant-baseline: middle; font-size: 10.2px;" transform="translate(88.60101318359375,76.5)" y="0" x="0" id="text-entity-Ride-40f552c2-674a-59b0-85b9-cc68f74d56b5-attr-3-key" class="er entityLabel">FK</text><rect height="21" width="20.92913818359375" y="87" x="0" class="er attributeBoxEven"/><text style="dominant-baseline: middle; font-size: 10.2px;" transform="translate(5,97.5)" y="0" x="0" id="text-entity-Ride-40f552c2-674a-59b0-85b9-cc68f74d56b5-attr-4-type" class="er entityLabel">int</text><rect height="21" width="62.671875" y="87" x="20.92913818359375" class="er attributeBoxEven"/><text style="dominant-baseline: middle; font-size: 10.2px;" transform="translate(25.92913818359375,97.5)" y="0" x="0" id="text-entity-Ride-40f552c2-674a-59b0-85b9-cc68f74d56b5-attr-4-name" class="er entityLabel">PassID</text><rect height="21" width="23.222930908203125" y="87" x="83.60101318359375" class="er attributeBoxEven"/><text style="dominant-baseline: middle; font-size: 10.2px;" transform="translate(88.60101318359375,97.5)" y="0" x="0" id="text-entity-Ride-40f552c2-674a-59b0-85b9-cc68f74d56b5-attr-4-key" class="er entityLabel">FK</text></g><g transform="translate(678.7587280273438,541 )" id="entity-Pass-329a4c5e-4480-5b52-9347-7fff486b47ec"><rect height="171" width="149.26303100585938" y="0" x="0" class="er entityBox"/><text style="dominant-baseline: middle; text-anchor: middle; font-size: 12px;" transform="translate(74.63151550292969,12)" y="0" x="0" id="text-entity-Pass-329a4c5e-4480-5b52-9347-7fff486b47ec" class="er entityLabel">Pass</text><rect height="21" width="41.483673095703125" y="24" x="0" class="er attributeBoxOdd"/><text style="dominant-baseline: middle; font-size: 10.2px;" transform="translate(5,34.5)" y="0" x="0" id="text-entity-Pass-329a4c5e-4480-5b52-9347-7fff486b47ec-attr-1-type" class="er entityLabel">int</text><rect height="21" width="83.984375" y="24" x="41.483673095703125" class="er attributeBoxOdd"/><text style="dominant-baseline: middle; font-size: 10.2px;" transform="translate(46.483673095703125,34.5)" y="0" x="0" id="text-entity-Pass-329a4c5e-4480-5b52-9347-7fff486b47ec-attr-1-name" class="er entityLabel">PassID</text><rect height="21" width="23.79498291015625" y="24" x="125.46804809570312" class="er attributeBoxOdd"/><text style="dominant-baseline: middle; font-size: 10.2px;" transform="translate(130.46804809570312,34.5)" y="0" x="0" id="text-entity-Pass-329a4c5e-4480-5b52-9347-7fff486b47ec-attr-1-key" class="er entityLabel">PK</text><rect height="21" width="41.483673095703125" y="45" x="0" class="er attributeBoxEven"/><text style="dominant-baseline: middle; font-size: 10.2px;" transform="translate(5,55.5)" y="0" x="0" id="text-entity-Pass-329a4c5e-4480-5b52-9347-7fff486b47ec-attr-2-type" class="er entityLabel">int</text><rect height="21" width="83.984375" y="45" x="41.483673095703125" class="er attributeBoxEven"/><text style="dominant-baseline: middle; font-size: 10.2px;" transform="translate(46.483673095703125,55.5)" y="0" x="0" id="text-entity-Pass-329a4c5e-4480-5b52-9347-7fff486b47ec-attr-2-name" class="er entityLabel">ValidUntilDateID</text><rect height="21" width="23.79498291015625" y="45" x="125.46804809570312" class="er attributeBoxEven"/><text style="dominant-baseline: middle; font-size: 10.2px;" transform="translate(130.46804809570312,55.5)" y="0" x="0" id="text-entity-Pass-329a4c5e-4480-5b52-9347-7fff486b47ec-attr-2-key" class="er entityLabel">FK</text><rect height="21" width="41.483673095703125" y="66" x="0" class="er attributeBoxOdd"/><text style="dominant-baseline: middle; font-size: 10.2px;" transform="translate(5,76.5)" y="0" x="0" id="text-entity-Pass-329a4c5e-4480-5b52-9347-7fff486b47ec-attr-3-type" class="er entityLabel">money</text><rect height="21" width="83.984375" y="66" x="41.483673095703125" class="er attributeBoxOdd"/><text style="dominant-baseline: middle; font-size: 10.2px;" transform="translate(46.483673095703125,76.5)" y="0" x="0" id="text-entity-Pass-329a4c5e-4480-5b52-9347-7fff486b47ec-attr-3-name" class="er entityLabel">Price</text><rect height="21" width="23.79498291015625" y="66" x="125.46804809570312" class="er attributeBoxOdd"/><text style="dominant-baseline: middle; font-size: 10.2px;" transform="translate(130.46804809570312,76.5)" y="0" x="0" id="text-entity-Pass-329a4c5e-4480-5b52-9347-7fff486b47ec-attr-3-key" class="er entityLabel"/><rect height="21" width="41.483673095703125" y="87" x="0" class="er attributeBoxEven"/><text style="dominant-baseline: middle; font-size: 10.2px;" transform="translate(5,97.5)" y="0" x="0" id="text-entity-Pass-329a4c5e-4480-5b52-9347-7fff486b47ec-attr-4-type" class="er entityLabel">int</text><rect height="21" width="83.984375" y="87" x="41.483673095703125" class="er attributeBoxEven"/><text style="dominant-baseline: middle; font-size: 10.2px;" transform="translate(46.483673095703125,97.5)" y="0" x="0" id="text-entity-Pass-329a4c5e-4480-5b52-9347-7fff486b47ec-attr-4-name" class="er entityLabel">TotalRides</text><rect height="21" width="23.79498291015625" y="87" x="125.46804809570312" class="er attributeBoxEven"/><text style="dominant-baseline: middle; font-size: 10.2px;" transform="translate(130.46804809570312,97.5)" y="0" x="0" id="text-entity-Pass-329a4c5e-4480-5b52-9347-7fff486b47ec-attr-4-key" class="er entityLabel"/><rect height="21" width="41.483673095703125" y="108" x="0" class="er attributeBoxOdd"/><text style="dominant-baseline: middle; font-size: 10.2px;" transform="translate(5,118.5)" y="0" x="0" id="text-entity-Pass-329a4c5e-4480-5b52-9347-7fff486b47ec-attr-5-type" class="er entityLabel">int</text><rect height="21" width="83.984375" y="108" x="41.483673095703125" class="er attributeBoxOdd"/><text style="dominant-baseline: middle; font-size: 10.2px;" transform="translate(46.483673095703125,118.5)" y="0" x="0" id="text-entity-Pass-329a4c5e-4480-5b52-9347-7fff486b47ec-attr-5-name" class="er entityLabel">LeftRides</text><rect height="21" width="23.79498291015625" y="108" x="125.46804809570312" class="er attributeBoxOdd"/><text style="dominant-baseline: middle; font-size: 10.2px;" transform="translate(130.46804809570312,118.5)" y="0" x="0" id="text-entity-Pass-329a4c5e-4480-5b52-9347-7fff486b47ec-attr-5-key" class="er entityLabel"/><rect height="21" width="41.483673095703125" y="129" x="0" class="er attributeBoxEven"/><text style="dominant-baseline: middle; font-size: 10.2px;" transform="translate(5,139.5)" y="0" x="0" id="text-entity-Pass-329a4c5e-4480-5b52-9347-7fff486b47ec-attr-6-type" class="er entityLabel">int</text><rect height="21" width="83.984375" y="129" x="41.483673095703125" class="er attributeBoxEven"/><text style="dominant-baseline: middle; font-size: 10.2px;" transform="translate(46.483673095703125,139.5)" y="0" x="0" id="text-entity-Pass-329a4c5e-4480-5b52-9347-7fff486b47ec-attr-6-name" class="er entityLabel">UsedRides</text><rect height="21" width="23.79498291015625" y="129" x="125.46804809570312" class="er attributeBoxEven"/><text style="dominant-baseline: middle; font-size: 10.2px;" transform="translate(130.46804809570312,139.5)" y="0" x="0" id="text-entity-Pass-329a4c5e-4480-5b52-9347-7fff486b47ec-attr-6-key" class="er entityLabel"/><rect height="21" width="41.483673095703125" y="150" x="0" class="er attributeBoxOdd"/><text style="dominant-baseline: middle; font-size: 10.2px;" transform="translate(5,160.5)" y="0" x="0" id="text-entity-Pass-329a4c5e-4480-5b52-9347-7fff486b47ec-attr-7-type" class="er entityLabel">string</text><rect height="21" width="83.984375" y="150" x="41.483673095703125" class="er attributeBoxOdd"/><text style="dominant-baseline: middle; font-size: 10.2px;" transform="translate(46.483673095703125,160.5)" y="0" x="0" id="text-entity-Pass-329a4c5e-4480-5b52-9347-7fff486b47ec-attr-7-name" class="er entityLabel">UsedState</text><rect height="21" width="23.79498291015625" y="150" x="125.46804809570312" class="er attributeBoxOdd"/><text style="dominant-baseline: middle; font-size: 10.2px;" transform="translate(130.46804809570312,160.5)" y="0" x="0" id="text-entity-Pass-329a4c5e-4480-5b52-9347-7fff486b47ec-attr-7-key" class="er entityLabel"/></g><g transform="translate(20,593.5 )" id="entity-Slope-6d85ea64-ea04-5c1e-8550-7941e10f7cb0"><rect height="66" width="122.60568237304688" y="0" x="0" class="er entityBox"/><text style="dominant-baseline: middle; text-anchor: middle; font-size: 12px;" transform="translate(61.30284118652344,12)" y="0" x="0" id="text-entity-Slope-6d85ea64-ea04-5c1e-8550-7941e10f7cb0" class="er entityLabel">Slope</text><rect height="21" width="35.245819091796875" y="24" x="0" class="er attributeBoxOdd"/><text style="dominant-baseline: middle; font-size: 10.2px;" transform="translate(5,34.5)" y="0" x="0" id="text-entity-Slope-6d85ea64-ea04-5c1e-8550-7941e10f7cb0-attr-1-type" class="er entityLabel">int</text><rect height="21" width="63.56488037109375" y="24" x="35.245819091796875" class="er attributeBoxOdd"/><text style="dominant-baseline: middle; font-size: 10.2px;" transform="translate(40.245819091796875,34.5)" y="0" x="0" id="text-entity-Slope-6d85ea64-ea04-5c1e-8550-7941e10f7cb0-attr-1-name" class="er entityLabel">SlopeID</text><rect height="21" width="23.79498291015625" y="24" x="98.81069946289062" class="er attributeBoxOdd"/><text style="dominant-baseline: middle; font-size: 10.2px;" transform="translate(103.81069946289062,34.5)" y="0" x="0" id="text-entity-Slope-6d85ea64-ea04-5c1e-8550-7941e10f7cb0-attr-1-key" class="er entityLabel">PK</text><rect height="21" width="35.245819091796875" y="45" x="0" class="er attributeBoxEven"/><text style="dominant-baseline: middle; font-size: 10.2px;" transform="translate(5,55.5)" y="0" x="0" id="text-entity-Slope-6d85ea64-ea04-5c1e-8550-7941e10f7cb0-attr-2-type" class="er entityLabel">string</text><rect height="21" width="63.56488037109375" y="45" x="35.245819091796875" class="er attributeBoxEven"/><text style="dominant-baseline: middle; font-size: 10.2px;" transform="translate(40.245819091796875,55.5)" y="0" x="0" id="text-entity-Slope-6d85ea64-ea04-5c1e-8550-7941e10f7cb0-attr-2-name" class="er entityLabel">SlopeName</text><rect height="21" width="23.79498291015625" y="45" x="98.81069946289062" class="er attributeBoxEven"/><text style="dominant-baseline: middle; font-size: 10.2px;" transform="translate(103.81069946289062,55.5)" y="0" x="0" id="text-entity-Slope-6d85ea64-ea04-5c1e-8550-7941e10f7cb0-attr-2-key" class="er entityLabel"/></g><g transform="translate(242.60568237304688,593.5 )" id="entity-Card-9e7838cd-1b7e-5cf3-ba52-d5a6e65042c6"><rect height="66" width="115.81069946289062" y="0" x="0" class="er entityBox"/><text style="dominant-baseline: middle; text-anchor: middle; font-size: 12px;" transform="translate(57.90534973144531,12)" y="0" x="0" id="text-entity-Card-9e7838cd-1b7e-5cf3-ba52-d5a6e65042c6" class="er entityLabel">Card</text><rect height="21" width="35.245819091796875" y="24" x="0" class="er attributeBoxOdd"/><text style="dominant-baseline: middle; font-size: 10.2px;" transform="translate(5,34.5)" y="0" x="0" id="text-entity-Card-9e7838cd-1b7e-5cf3-ba52-d5a6e65042c6-attr-1-type" class="er entityLabel">int</text><rect height="21" width="56.7698974609375" y="24" x="35.245819091796875" class="er attributeBoxOdd"/><text style="dominant-baseline: middle; font-size: 10.2px;" transform="translate(40.245819091796875,34.5)" y="0" x="0" id="text-entity-Card-9e7838cd-1b7e-5cf3-ba52-d5a6e65042c6-attr-1-name" class="er entityLabel">CardID</text><rect height="21" width="23.79498291015625" y="24" x="92.01571655273438" class="er attributeBoxOdd"/><text style="dominant-baseline: middle; font-size: 10.2px;" transform="translate(97.01571655273438,34.5)" y="0" x="0" id="text-entity-Card-9e7838cd-1b7e-5cf3-ba52-d5a6e65042c6-attr-1-key" class="er entityLabel">PK</text><rect height="21" width="35.245819091796875" y="45" x="0" class="er attributeBoxEven"/><text style="dominant-baseline: middle; font-size: 10.2px;" transform="translate(5,55.5)" y="0" x="0" id="text-entity-Card-9e7838cd-1b7e-5cf3-ba52-d5a6e65042c6-attr-2-type" class="er entityLabel">string</text><rect height="21" width="56.7698974609375" y="45" x="35.245819091796875" class="er attributeBoxEven"/><text style="dominant-baseline: middle; font-size: 10.2px;" transform="translate(40.245819091796875,55.5)" y="0" x="0" id="text-entity-Card-9e7838cd-1b7e-5cf3-ba52-d5a6e65042c6-attr-2-name" class="er entityLabel">CardCode</text><rect height="21" width="23.79498291015625" y="45" x="92.01571655273438" class="er attributeBoxEven"/><text style="dominant-baseline: middle; font-size: 10.2px;" transform="translate(97.01571655273438,55.5)" y="0" x="0" id="text-entity-Card-9e7838cd-1b7e-5cf3-ba52-d5a6e65042c6-attr-2-key" class="er entityLabel"/></g><g transform="translate(323.2412414550781,812 )" id="entity-PassSale-d0dcec6f-ba9f-56e6-a300-f3ea19ebfdf3"><rect height="213" width="172.61610412597656" y="0" x="0" class="er entityBox"/><text style="dominant-baseline: middle; text-anchor: middle; font-size: 12px;" transform="translate(86.30805206298828,12)" y="0" x="0" id="text-entity-PassSale-d0dcec6f-ba9f-56e6-a300-f3ea19ebfdf3" class="er entityLabel">PassSale</text><rect height="21" width="41.483673095703125" y="24" x="0" class="er attributeBoxOdd"/><text style="dominant-baseline: middle; font-size: 10.2px;" transform="translate(5,34.5)" y="0" x="0" id="text-entity-PassSale-d0dcec6f-ba9f-56e6-a300-f3ea19ebfdf3-attr-1-type" class="er entityLabel">int</text><rect height="21" width="107.90950012207031" y="24" x="41.483673095703125" class="er attributeBoxOdd"/><text style="dominant-baseline: middle; font-size: 10.2px;" transform="translate(46.483673095703125,34.5)" y="0" x="0" id="text-entity-PassSale-d0dcec6f-ba9f-56e6-a300-f3ea19ebfdf3-attr-1-name" class="er entityLabel">PassSaleDateID</text><rect height="21" width="23.222930908203125" y="24" x="149.39317321777344" class="er attributeBoxOdd"/><text style="dominant-baseline: middle; font-size: 10.2px;" transform="translate(154.39317321777344,34.5)" y="0" x="0" id="text-entity-PassSale-d0dcec6f-ba9f-56e6-a300-f3ea19ebfdf3-attr-1-key" class="er entityLabel">FK</text><rect height="21" width="41.483673095703125" y="45" x="0" class="er attributeBoxEven"/><text style="dominant-baseline: middle; font-size: 10.2px;" transform="translate(5,55.5)" y="0" x="0" id="text-entity-PassSale-d0dcec6f-ba9f-56e6-a300-f3ea19ebfdf3-attr-2-type" class="er entityLabel">int</text><rect height="21" width="107.90950012207031" y="45" x="41.483673095703125" class="er attributeBoxEven"/><text style="dominant-baseline: middle; font-size: 10.2px;" transform="translate(46.483673095703125,55.5)" y="0" x="0" id="text-entity-PassSale-d0dcec6f-ba9f-56e6-a300-f3ea19ebfdf3-attr-2-name" class="er entityLabel">CardID</text><rect height="21" width="23.222930908203125" y="45" x="149.39317321777344" class="er attributeBoxEven"/><text style="dominant-baseline: middle; font-size: 10.2px;" transform="translate(154.39317321777344,55.5)" y="0" x="0" id="text-entity-PassSale-d0dcec6f-ba9f-56e6-a300-f3ea19ebfdf3-attr-2-key" class="er entityLabel">FK</text><rect height="21" width="41.483673095703125" y="66" x="0" class="er attributeBoxOdd"/><text style="dominant-baseline: middle; font-size: 10.2px;" transform="translate(5,76.5)" y="0" x="0" id="text-entity-PassSale-d0dcec6f-ba9f-56e6-a300-f3ea19ebfdf3-attr-3-type" class="er entityLabel">int</text><rect height="21" width="107.90950012207031" y="66" x="41.483673095703125" class="er attributeBoxOdd"/><text style="dominant-baseline: middle; font-size: 10.2px;" transform="translate(46.483673095703125,76.5)" y="0" x="0" id="text-entity-PassSale-d0dcec6f-ba9f-56e6-a300-f3ea19ebfdf3-attr-3-name" class="er entityLabel">ClientID</text><rect height="21" width="23.222930908203125" y="66" x="149.39317321777344" class="er attributeBoxOdd"/><text style="dominant-baseline: middle; font-size: 10.2px;" transform="translate(154.39317321777344,76.5)" y="0" x="0" id="text-entity-PassSale-d0dcec6f-ba9f-56e6-a300-f3ea19ebfdf3-attr-3-key" class="er entityLabel">FK</text><rect height="21" width="41.483673095703125" y="87" x="0" class="er attributeBoxEven"/><text style="dominant-baseline: middle; font-size: 10.2px;" transform="translate(5,97.5)" y="0" x="0" id="text-entity-PassSale-d0dcec6f-ba9f-56e6-a300-f3ea19ebfdf3-attr-4-type" class="er entityLabel">int</text><rect height="21" width="107.90950012207031" y="87" x="41.483673095703125" class="er attributeBoxEven"/><text style="dominant-baseline: middle; font-size: 10.2px;" transform="translate(46.483673095703125,97.5)" y="0" x="0" id="text-entity-PassSale-d0dcec6f-ba9f-56e6-a300-f3ea19ebfdf3-attr-4-name" class="er entityLabel">PassID</text><rect height="21" width="23.222930908203125" y="87" x="149.39317321777344" class="er attributeBoxEven"/><text style="dominant-baseline: middle; font-size: 10.2px;" transform="translate(154.39317321777344,97.5)" y="0" x="0" id="text-entity-PassSale-d0dcec6f-ba9f-56e6-a300-f3ea19ebfdf3-attr-4-key" class="er entityLabel">FK</text><rect height="21" width="41.483673095703125" y="108" x="0" class="er attributeBoxOdd"/><text style="dominant-baseline: middle; font-size: 10.2px;" transform="translate(5,118.5)" y="0" x="0" id="text-entity-PassSale-d0dcec6f-ba9f-56e6-a300-f3ea19ebfdf3-attr-5-type" class="er entityLabel">int</text><rect height="21" width="107.90950012207031" y="108" x="41.483673095703125" class="er attributeBoxOdd"/><text style="dominant-baseline: middle; font-size: 10.2px;" transform="translate(46.483673095703125,118.5)" y="0" x="0" id="text-entity-PassSale-d0dcec6f-ba9f-56e6-a300-f3ea19ebfdf3-attr-5-name" class="er entityLabel">JunkID</text><rect height="21" width="23.222930908203125" y="108" x="149.39317321777344" class="er attributeBoxOdd"/><text style="dominant-baseline: middle; font-size: 10.2px;" transform="translate(154.39317321777344,118.5)" y="0" x="0" id="text-entity-PassSale-d0dcec6f-ba9f-56e6-a300-f3ea19ebfdf3-attr-5-key" class="er entityLabel">FK</text><rect height="21" width="41.483673095703125" y="129" x="0" class="er attributeBoxEven"/><text style="dominant-baseline: middle; font-size: 10.2px;" transform="translate(5,139.5)" y="0" x="0" id="text-entity-PassSale-d0dcec6f-ba9f-56e6-a300-f3ea19ebfdf3-attr-6-type" class="er entityLabel">money</text><rect height="21" width="107.90950012207031" y="129" x="41.483673095703125" class="er attributeBoxEven"/><text style="dominant-baseline: middle; font-size: 10.2px;" transform="translate(46.483673095703125,139.5)" y="0" x="0" id="text-entity-PassSale-d0dcec6f-ba9f-56e6-a300-f3ea19ebfdf3-attr-6-name" class="er entityLabel">Price</text><rect height="21" width="23.222930908203125" y="129" x="149.39317321777344" class="er attributeBoxEven"/><text style="dominant-baseline: middle; font-size: 10.2px;" transform="translate(154.39317321777344,139.5)" y="0" x="0" id="text-entity-PassSale-d0dcec6f-ba9f-56e6-a300-f3ea19ebfdf3-attr-6-key" class="er entityLabel"/><rect height="21" width="41.483673095703125" y="150" x="0" class="er attributeBoxOdd"/><text style="dominant-baseline: middle; font-size: 10.2px;" transform="translate(5,160.5)" y="0" x="0" id="text-entity-PassSale-d0dcec6f-ba9f-56e6-a300-f3ea19ebfdf3-attr-7-type" class="er entityLabel">money</text><rect height="21" width="107.90950012207031" y="150" x="41.483673095703125" class="er attributeBoxOdd"/><text style="dominant-baseline: middle; font-size: 10.2px;" transform="translate(46.483673095703125,160.5)" y="0" x="0" id="text-entity-PassSale-d0dcec6f-ba9f-56e6-a300-f3ea19ebfdf3-attr-7-name" class="er entityLabel">TotalTransactionPrice</text><rect height="21" width="23.222930908203125" y="150" x="149.39317321777344" class="er attributeBoxOdd"/><text style="dominant-baseline: middle; font-size: 10.2px;" transform="translate(154.39317321777344,160.5)" y="0" x="0" id="text-entity-PassSale-d0dcec6f-ba9f-56e6-a300-f3ea19ebfdf3-attr-7-key" class="er entityLabel"/><rect height="21" width="41.483673095703125" y="171" x="0" class="er attributeBoxEven"/><text style="dominant-baseline: middle; font-size: 10.2px;" transform="translate(5,181.5)" y="0" x="0" id="text-entity-PassSale-d0dcec6f-ba9f-56e6-a300-f3ea19ebfdf3-attr-8-type" class="er entityLabel">int</text><rect height="21" width="107.90950012207031" y="171" x="41.483673095703125" class="er attributeBoxEven"/><text style="dominant-baseline: middle; font-size: 10.2px;" transform="translate(46.483673095703125,181.5)" y="0" x="0" id="text-entity-PassSale-d0dcec6f-ba9f-56e6-a300-f3ea19ebfdf3-attr-8-name" class="er entityLabel">BoughtRides</text><rect height="21" width="23.222930908203125" y="171" x="149.39317321777344" class="er attributeBoxEven"/><text style="dominant-baseline: middle; font-size: 10.2px;" transform="translate(154.39317321777344,181.5)" y="0" x="0" id="text-entity-PassSale-d0dcec6f-ba9f-56e6-a300-f3ea19ebfdf3-attr-8-key" class="er entityLabel"/><rect height="21" width="41.483673095703125" y="192" x="0" class="er attributeBoxOdd"/><text style="dominant-baseline: middle; font-size: 10.2px;" transform="translate(5,202.5)" y="0" x="0" id="text-entity-PassSale-d0dcec6f-ba9f-56e6-a300-f3ea19ebfdf3-attr-9-type" class="er entityLabel">int</text><rect height="21" width="107.90950012207031" y="192" x="41.483673095703125" class="er attributeBoxOdd"/><text style="dominant-baseline: middle; font-size: 10.2px;" transform="translate(46.483673095703125,202.5)" y="0" x="0" id="text-entity-PassSale-d0dcec6f-ba9f-56e6-a300-f3ea19ebfdf3-attr-9-name" class="er entityLabel">TransactionNumber</text><rect height="21" width="23.222930908203125" y="192" x="149.39317321777344" class="er attributeBoxOdd"/><text style="dominant-baseline: middle; font-size: 10.2px;" transform="translate(154.39317321777344,202.5)" y="0" x="0" id="text-entity-PassSale-d0dcec6f-ba9f-56e6-a300-f3ea19ebfdf3-attr-9-key" class="er entityLabel"/></g><g transform="translate(458.4163818359375,572.5 )" id="entity-Client-89ba4e64-b52f-5095-8d5c-caea66804388"><rect height="108" width="120.34234619140625" y="0" x="0" class="er entityBox"/><text style="dominant-baseline: middle; text-anchor: middle; font-size: 12px;" transform="translate(60.171173095703125,12)" y="0" x="0" id="text-entity-Client-89ba4e64-b52f-5095-8d5c-caea66804388" class="er entityLabel">Client</text><rect height="21" width="35.245819091796875" y="24" x="0" class="er attributeBoxOdd"/><text style="dominant-baseline: middle; font-size: 10.2px;" transform="translate(5,34.5)" y="0" x="0" id="text-entity-Client-89ba4e64-b52f-5095-8d5c-caea66804388-attr-1-type" class="er entityLabel">int</text><rect height="21" width="61.301544189453125" y="24" x="35.245819091796875" class="er attributeBoxOdd"/><text style="dominant-baseline: middle; font-size: 10.2px;" transform="translate(40.245819091796875,34.5)" y="0" x="0" id="text-entity-Client-89ba4e64-b52f-5095-8d5c-caea66804388-attr-1-name" class="er entityLabel">ClientID</text><rect height="21" width="23.79498291015625" y="24" x="96.54736328125" class="er attributeBoxOdd"/><text style="dominant-baseline: middle; font-size: 10.2px;" transform="translate(101.54736328125,34.5)" y="0" x="0" id="text-entity-Client-89ba4e64-b52f-5095-8d5c-caea66804388-attr-1-key" class="er entityLabel">PK</text><rect height="21" width="35.245819091796875" y="45" x="0" class="er attributeBoxEven"/><text style="dominant-baseline: middle; font-size: 10.2px;" transform="translate(5,55.5)" y="0" x="0" id="text-entity-Client-89ba4e64-b52f-5095-8d5c-caea66804388-attr-2-type" class="er entityLabel">string</text><rect height="21" width="61.301544189453125" y="45" x="35.245819091796875" class="er attributeBoxEven"/><text style="dominant-baseline: middle; font-size: 10.2px;" transform="translate(40.245819091796875,55.5)" y="0" x="0" id="text-entity-Client-89ba4e64-b52f-5095-8d5c-caea66804388-attr-2-name" class="er entityLabel">Email</text><rect height="21" width="23.79498291015625" y="45" x="96.54736328125" class="er attributeBoxEven"/><text style="dominant-baseline: middle; font-size: 10.2px;" transform="translate(101.54736328125,55.5)" y="0" x="0" id="text-entity-Client-89ba4e64-b52f-5095-8d5c-caea66804388-attr-2-key" class="er entityLabel"/><rect height="21" width="35.245819091796875" y="66" x="0" class="er attributeBoxOdd"/><text style="dominant-baseline: middle; font-size: 10.2px;" transform="translate(5,76.5)" y="0" x="0" id="text-entity-Client-89ba4e64-b52f-5095-8d5c-caea66804388-attr-3-type" class="er entityLabel">string</text><rect height="21" width="61.301544189453125" y="66" x="35.245819091796875" class="er attributeBoxOdd"/><text style="dominant-baseline: middle; font-size: 10.2px;" transform="translate(40.245819091796875,76.5)" y="0" x="0" id="text-entity-Client-89ba4e64-b52f-5095-8d5c-caea66804388-attr-3-name" class="er entityLabel">Experience</text><rect height="21" width="23.79498291015625" y="66" x="96.54736328125" class="er attributeBoxOdd"/><text style="dominant-baseline: middle; font-size: 10.2px;" transform="translate(101.54736328125,76.5)" y="0" x="0" id="text-entity-Client-89ba4e64-b52f-5095-8d5c-caea66804388-attr-3-key" class="er entityLabel"/><rect height="21" width="35.245819091796875" y="87" x="0" class="er attributeBoxEven"/><text style="dominant-baseline: middle; font-size: 10.2px;" transform="translate(5,97.5)" y="0" x="0" id="text-entity-Client-89ba4e64-b52f-5095-8d5c-caea66804388-attr-4-type" class="er entityLabel">bool</text><rect height="21" width="61.301544189453125" y="87" x="35.245819091796875" class="er attributeBoxEven"/><text style="dominant-baseline: middle; font-size: 10.2px;" transform="translate(40.245819091796875,97.5)" y="0" x="0" id="text-entity-Client-89ba4e64-b52f-5095-8d5c-caea66804388-attr-4-name" class="er entityLabel">IsCurrent</text><rect height="21" width="23.79498291015625" y="87" x="96.54736328125" class="er attributeBoxEven"/><text style="dominant-baseline: middle; font-size: 10.2px;" transform="translate(101.54736328125,97.5)" y="0" x="0" id="text-entity-Client-89ba4e64-b52f-5095-8d5c-caea66804388-attr-4-key" class="er entityLabel"/></g><g transform="translate(337.7704391479492,1125 )" id="entity-Junk-6dd5f690-52e8-581d-9443-6e9ccfb9aa87"><rect height="66" width="143.55770874023438" y="0" x="0" class="er entityBox"/><text style="dominant-baseline: middle; text-anchor: middle; font-size: 12px;" transform="translate(71.77885437011719,12)" y="0" x="0" id="text-entity-Junk-6dd5f690-52e8-581d-9443-6e9ccfb9aa87" class="er entityLabel">Junk</text><rect height="21" width="35.245819091796875" y="24" x="0" class="er attributeBoxOdd"/><text style="dominant-baseline: middle; font-size: 10.2px;" transform="translate(5,34.5)" y="0" x="0" id="text-entity-Junk-6dd5f690-52e8-581d-9443-6e9ccfb9aa87-attr-1-type" class="er entityLabel">int</text><rect height="21" width="84.51690673828125" y="24" x="35.245819091796875" class="er attributeBoxOdd"/><text style="dominant-baseline: middle; font-size: 10.2px;" transform="translate(40.245819091796875,34.5)" y="0" x="0" id="text-entity-Junk-6dd5f690-52e8-581d-9443-6e9ccfb9aa87-attr-1-name" class="er entityLabel">JunkID</text><rect height="21" width="23.79498291015625" y="24" x="119.76272583007812" class="er attributeBoxOdd"/><text style="dominant-baseline: middle; font-size: 10.2px;" transform="translate(124.76272583007812,34.5)" y="0" x="0" id="text-entity-Junk-6dd5f690-52e8-581d-9443-6e9ccfb9aa87-attr-1-key" class="er entityLabel">PK</text><rect height="21" width="35.245819091796875" y="45" x="0" class="er attributeBoxEven"/><text style="dominant-baseline: middle; font-size: 10.2px;" transform="translate(5,55.5)" y="0" x="0" id="text-entity-Junk-6dd5f690-52e8-581d-9443-6e9ccfb9aa87-attr-2-type" class="er entityLabel">string</text><rect height="21" width="84.51690673828125" y="45" x="35.245819091796875" class="er attributeBoxEven"/><text style="dominant-baseline: middle; font-size: 10.2px;" transform="translate(40.245819091796875,55.5)" y="0" x="0" id="text-entity-Junk-6dd5f690-52e8-581d-9443-6e9ccfb9aa87-attr-2-name" class="er entityLabel">PaymentMethod</text><rect height="21" width="23.79498291015625" y="45" x="119.76272583007812" class="er attributeBoxEven"/><text style="dominant-baseline: middle; font-size: 10.2px;" transform="translate(124.76272583007812,55.5)" y="0" x="0" id="text-entity-Junk-6dd5f690-52e8-581d-9443-6e9ccfb9aa87-attr-2-key" class="er entityLabel"/></g><rect height="0" width="0" y="283" x="300.510986328125" class="er relationshipLabelBox"/><text style="text-anchor: middle; dominant-baseline: middle; font-size: 12px;" y="283" x="300.510986328125" id="rel1" class="er relationshipLabel"/><rect height="0" width="0" y="474.38287353515625" x="523.502197265625" class="er relationshipLabelBox"/><text style="text-anchor: middle; dominant-baseline: middle; font-size: 12px;" y="474.38287353515625" x="523.502197265625" id="rel2" class="er relationshipLabel"/><rect height="0" width="0" y="476.1806640625" x="129.9894256591797" class="er relationshipLabelBox"/><text style="text-anchor: middle; dominant-baseline: middle; font-size: 12px;" y="476.1806640625" x="129.9894256591797" id="rel3" class="er relationshipLabel"/><rect height="0" width="0" y="517.25" x="300.510986328125" class="er relationshipLabelBox"/><text style="text-anchor: middle; dominant-baseline: middle; font-size: 12px;" y="517.25" x="300.510986328125" id="rel4" class="er relationshipLabel"/><rect height="0" width="0" y="565.65234375" x="-80" class="er relationshipLabelBox"/><text style="text-anchor: middle; dominant-baseline: middle; font-size: 12px;" y="565.65234375" x="-80" id="rel5" class="er relationshipLabel"/><rect height="0" width="0" y="739.443115234375" x="303.80029296875" class="er relationshipLabelBox"/><text style="text-anchor: middle; dominant-baseline: middle; font-size: 12px;" y="739.443115234375" x="303.80029296875" id="rel6" class="er relationshipLabel"/><rect height="0" width="0" y="749.9859619140625" x="514.3649291992188" class="er relationshipLabelBox"/><text style="text-anchor: middle; dominant-baseline: middle; font-size: 12px;" y="749.9859619140625" x="514.3649291992188" id="rel7" class="er relationshipLabel"/><rect height="0" width="0" y="260.56781005859375" x="697.0673217773438" class="er relationshipLabelBox"/><text style="text-anchor: middle; dominant-baseline: middle; font-size: 12px;" y="260.56781005859375" x="697.0673217773438" id="rel8" class="er relationshipLabel"/><rect height="0" width="0" y="811.8119506835938" x="640.345703125" class="er relationshipLabelBox"/><text style="text-anchor: middle; dominant-baseline: middle; font-size: 12px;" y="811.8119506835938" x="640.345703125" id="rel9" class="er relationshipLabel"/><rect height="0" width="0" y="1075" x="409.54901123046875" class="er relationshipLabelBox"/><text style="text-anchor: middle; dominant-baseline: middle; font-size: 12px;" y="1075" x="409.54901123046875" id="rel10" class="er relationshipLabel"/></svg>